<svg width="68" height="20" viewBox="0 0 68 20" fill="none" xmlns="http://www.w3.org/2000/svg">
<path d="M30.1477 16H34.858C37.5227 16 38.8295 14.642 38.8295 12.8295C38.8295 11.0682 37.5795 10.0341 36.3409 9.97159V9.85795C37.4773 9.59091 38.375 8.79545 38.375 7.38068C38.375 5.64773 37.125 4.36364 34.6023 4.36364H30.1477V16ZM32.2557 14.2386V10.8295H34.5795C35.8807 10.8295 36.6875 11.625 36.6875 12.6648C36.6875 13.5909 36.0511 14.2386 34.5227 14.2386H32.2557ZM32.2557 9.3125V6.10227H34.3864C35.625 6.10227 36.267 6.75568 36.267 7.65341C36.267 8.67614 35.4375 9.3125 34.3409 9.3125H32.2557ZM43.0838 16.1761C44.4531 16.1761 45.2713 15.5341 45.6463 14.8011H45.7145V16H47.6918V10.1591C47.6918 7.85227 45.8111 7.15909 44.1463 7.15909C42.3111 7.15909 40.902 7.97727 40.4474 9.56818L42.3679 9.84091C42.5724 9.24432 43.152 8.73295 44.1577 8.73295C45.1122 8.73295 45.6349 9.22159 45.6349 10.0795V10.1136C45.6349 10.7045 45.0156 10.733 43.4759 10.8977C41.7827 11.0795 40.1634 11.5852 40.1634 13.5511C40.1634 15.267 41.419 16.1761 43.0838 16.1761ZM43.6179 14.6648C42.7599 14.6648 42.1463 14.2727 42.1463 13.517C42.1463 12.7273 42.8338 12.3977 43.7543 12.267C44.294 12.1932 45.3736 12.0568 45.6406 11.8409V12.8693C45.6406 13.8409 44.8565 14.6648 43.6179 14.6648ZM53.5668 16.1705C55.7599 16.1705 57.1577 14.8693 57.3054 13.017H55.3395C55.1634 13.9545 54.4872 14.4943 53.5838 14.4943C52.2997 14.4943 51.4702 13.4205 51.4702 11.6364C51.4702 9.875 52.3168 8.81818 53.5838 8.81818C54.5724 8.81818 55.1804 9.45455 55.3395 10.2955H57.3054C57.1634 8.40341 55.6861 7.15909 53.5554 7.15909C50.9986 7.15909 49.3849 9.00568 49.3849 11.6705C49.3849 14.3125 50.9588 16.1705 53.5668 16.1705ZM58.9943 16H61.0511V13.0682L61.8011 12.267L64.4716 16H66.9318L63.3523 11.0398L66.733 7.27273H64.3295L61.1932 10.7784H61.0511V4.36364H58.9943V16Z" fill="#ACACAC"/>
<path d="M14.8625 3.225L13.3791 1.75L5.13745 10L13.3875 18.25L14.8625 16.775L8.08745 10L14.8625 3.225Z" fill="#ACACAC"/>
</svg>
