<svg width="26" height="25" viewBox="0 0 26 25" fill="none" xmlns="http://www.w3.org/2000/svg">
<path d="M16.3258 2.08334C19.2616 2.08334 21.6341 3.19793 21.6666 6.03126V21.8438C21.6666 22.0208 21.6233 22.1979 21.5366 22.3542C21.3958 22.6042 21.1574 22.7917 20.8649 22.875C20.5833 22.9583 20.2691 22.9167 20.0091 22.7708L12.9891 19.3958L5.95825 22.7708C5.79684 22.8531 5.61159 22.9063 5.42742 22.9063C4.82075 22.9063 4.33325 22.4271 4.33325 21.8438V6.03126C4.33325 3.19793 6.71659 2.08334 9.64158 2.08334H16.3258ZM17.0624 8.37501H8.90492C8.43909 8.37501 8.05992 8.73959 8.05992 9.19793C8.05992 9.65522 8.43909 10.0208 8.90492 10.0208H17.0624C17.5283 10.0208 17.9074 9.65522 17.9074 9.19793C17.9074 8.73959 17.5283 8.37501 17.0624 8.37501Z" fill="#222222"/>
</svg>
