<svg width="36" height="36" viewBox="0 0 36 36" fill="none" xmlns="http://www.w3.org/2000/svg">
<rect width="36" height="36" rx="10" fill="#222222"/>
<path fill-rule="evenodd" clip-rule="evenodd" d="M17.5345 8.86686C17.914 8.86686 18.222 9.17486 18.222 9.55436C18.222 9.93386 17.914 10.2419 17.5345 10.2419H14.1071C11.7384 10.2419 10.2085 11.8644 10.2085 14.3751V21.9963C10.2085 24.507 11.7384 26.1295 14.1071 26.1295H22.1957C24.5644 26.1295 26.0952 24.507 26.0952 21.9963V18.3039C26.0952 17.9244 26.4032 17.6164 26.7827 17.6164C27.1622 17.6164 27.4702 17.9244 27.4702 18.3039V21.9963C27.4702 25.2908 25.35 27.5045 22.1957 27.5045H14.1071C10.9528 27.5045 8.8335 25.2908 8.8335 21.9963V14.3751C8.8335 11.0806 10.9528 8.86686 14.1071 8.86686H17.5345ZM25.5183 9.67225L26.6339 10.7878C27.1775 11.3305 27.4763 12.0519 27.4754 12.8201C27.4754 13.5882 27.1765 14.3087 26.6339 14.8505L19.7506 21.7337C19.2455 22.2388 18.5727 22.5175 17.8577 22.5175H14.4239C14.2387 22.5175 14.0609 22.4423 13.9316 22.3094C13.8024 22.1774 13.7318 21.9987 13.7364 21.8126L13.8225 18.3485C13.84 17.6592 14.1177 17.0111 14.6054 16.5225L21.4565 9.67225C22.5767 8.55391 24.3981 8.55391 25.5183 9.67225ZM20.8922 12.1802L15.578 17.4951C15.3405 17.7325 15.2058 18.0478 15.1975 18.3824L15.1288 21.1425H17.8577C18.206 21.1425 18.5324 21.0077 18.779 20.7612L24.1253 15.4133L20.8922 12.1802ZM22.4282 10.6448L21.8639 11.2077L25.097 14.4417L25.6622 13.8779C25.9445 13.5956 26.1004 13.2197 26.1004 12.8201C26.1004 12.4195 25.9445 12.0427 25.6622 11.7604L24.5466 10.6448C23.9627 10.0627 23.013 10.0627 22.4282 10.6448Z" fill="white"/>
</svg>
