<svg width="53" height="53" viewBox="0 0 53 53" fill="none" xmlns="http://www.w3.org/2000/svg">
<circle cx="26.5" cy="26.5" r="26.5" fill="#F4F3F3"/>
<path fill-rule="evenodd" clip-rule="evenodd" d="M31.2144 27.9945C32.7159 27.9945 33.9374 29.2099 33.9374 30.7035C33.9374 32.1971 32.7159 33.4125 31.2144 33.4125C29.712 33.4125 28.4897 32.1971 28.4897 30.7035C28.4897 29.2099 29.712 27.9945 31.2144 27.9945ZM31.2144 29.307C30.4357 29.307 29.8022 29.9335 29.8022 30.7035C29.8022 31.4744 30.4357 32.1 31.2144 32.1C31.9923 32.1 32.6249 31.4744 32.6249 30.7035C32.6249 29.9335 31.9923 29.307 31.2144 29.307ZM24.8203 30.0812C25.1825 30.0812 25.4765 30.3752 25.4765 30.7374C25.4765 31.0997 25.1825 31.3937 24.8203 31.3937H19.3069C18.9446 31.3937 18.6506 31.0997 18.6506 30.7374C18.6506 30.3752 18.9446 30.0812 19.3069 30.0812H24.8203ZM21.3489 19.5C22.8513 19.5 24.0728 20.7162 24.0728 22.2099C24.0728 23.7035 22.8513 24.918 21.3489 24.918C19.8474 24.918 18.625 23.7035 18.625 22.2099C18.625 20.7162 19.8474 19.5 21.3489 19.5ZM21.3489 20.8125C20.571 20.8125 19.9375 21.439 19.9375 22.2099C19.9375 22.9799 20.571 23.6055 21.3489 23.6055C22.1276 23.6055 22.7603 22.9799 22.7603 22.2099C22.7603 21.439 22.1276 20.8125 21.3489 20.8125ZM32.7922 21.6003C33.1545 21.6003 33.4485 21.8943 33.4485 22.2566C33.4485 22.6188 33.1545 22.9128 32.7922 22.9128H27.2797C26.9175 22.9128 26.6235 22.6188 26.6235 22.2566C26.6235 21.8943 26.9175 21.6003 27.2797 21.6003H32.7922Z" fill="black"/>
</svg>
