<svg width="48" height="48" viewBox="0 0 48 48" fill="none" xmlns="http://www.w3.org/2000/svg">
<path d="M39.014 28.98C40.322 26.5237 41.0041 23.7828 41 21C41 11.611 33.389 4 24 4C14.611 4 7.00002 11.611 7.00002 21C6.99314 25.0103 8.41072 28.8927 11 31.955L11.02 31.98C11.027 31.986 11.033 31.994 11.038 32H11L21.088 42.71C21.462 43.107 21.9132 43.4233 22.4139 43.6394C22.9146 43.8556 23.4542 43.9672 23.9995 43.9672C24.5449 43.9672 25.0845 43.8556 25.5852 43.6394C26.0859 43.4233 26.5371 43.107 26.911 42.71L37 32H36.962L36.978 31.981L36.98 31.979C37.052 31.893 37.124 31.807 37.195 31.719C37.8886 30.8665 38.4982 29.9489 39.015 28.979L39.014 28.98ZM24.004 27.5C22.4127 27.5 20.8866 26.8679 19.7614 25.7426C18.6362 24.6174 18.004 23.0913 18.004 21.5C18.004 19.9087 18.6362 18.3826 19.7614 17.2574C20.8866 16.1321 22.4127 15.5 24.004 15.5C25.5953 15.5 27.1214 16.1321 28.2467 17.2574C29.3719 18.3826 30.004 19.9087 30.004 21.5C30.004 23.0913 29.3719 24.6174 28.2467 25.7426C27.1214 26.8679 25.5953 27.5 24.004 27.5Z" fill="#222222"/>
</svg>
