<svg width="133" height="60" viewBox="0 0 133 60" fill="none" xmlns="http://www.w3.org/2000/svg">
<rect width="60" height="60" rx="20" fill="#F4F3F3"/>
<path fill-rule="evenodd" clip-rule="evenodd" d="M12.764 30.2457C12.7691 30.187 12.7949 30.0332 12.924 29.9606C13.0136 29.9062 13.1212 29.9243 13.1929 29.9606L13.2646 29.9969C16.8856 32.4281 21.2415 34.0429 25.8125 34.7142C26.4578 34.8049 27.1032 34.3876 27.2824 33.7344C27.6768 32.2467 28.9495 31.2669 30.4732 31.2669H30.527L30.8096 31.2783C32.2063 31.3914 33.348 32.3397 33.7177 33.7344C33.897 34.3876 34.5423 34.8049 35.1876 34.7142C39.7587 34.0429 44.1146 32.4281 47.7356 29.9969C47.7535 29.9788 47.9328 29.8699 48.0762 29.9606C48.2375 30.0513 48.2375 30.269 48.2375 30.269L48.112 39.5222L48.1032 39.8772C47.9209 43.522 44.947 46.4166 41.3003 46.4166H19.7178L19.3671 46.4077C15.7659 46.2232 12.9061 43.2132 12.9061 39.5222L12.7627 30.269L12.764 30.2457ZM31.841 35.0391C31.751 34.3798 31.1827 33.8614 30.509 33.8614C29.7562 33.8614 29.1646 34.4783 29.1646 35.2222V37.5627L29.1767 37.7495C29.2643 38.4203 29.8189 38.9234 30.509 38.9234C31.244 38.9234 31.8535 38.3247 31.8535 37.5627V35.2222L31.841 35.0391Z" fill="#222222"/>
<path fill-rule="evenodd" clip-rule="evenodd" d="M28.1966 10.5833C25.5078 10.5833 23.3029 12.6335 22.9624 15.2643H19.4131C15.6487 15.2643 12.5834 18.3668 12.5834 22.1769C12.5834 22.1769 12.691 23.7899 12.7268 26.036C12.7304 26.2138 12.8164 26.388 12.9581 26.4932C13.8203 27.1301 14.609 27.6562 14.6807 27.6925C17.6564 29.6883 21.1142 31.0926 24.7979 31.7911C25.0381 31.8383 25.2748 31.7131 25.3967 31.499C26.4292 29.7101 28.358 28.5452 30.509 28.5452C32.6458 28.5452 34.5925 29.6974 35.6555 31.4881C35.7792 31.6986 36.0122 31.8201 36.2506 31.7748C39.9039 31.0744 43.3617 29.672 46.3194 27.7107L48.0403 26.5132C48.1837 26.4225 48.2733 26.2592 48.2733 26.0778C48.3271 25.1524 48.4167 22.1769 48.4167 22.1769C48.4167 18.3668 45.3515 15.2643 41.5871 15.2643H38.0557C37.7151 12.6335 35.5103 10.5833 32.8214 10.5833H28.1966ZM32.8214 13.3048H28.1966C26.9956 13.3048 25.9739 14.1394 25.687 15.2643H35.331C35.0442 14.1394 34.0225 13.3048 32.8214 13.3048Z" fill="#222222"/>
<path d="M66.1477 54V42.3636H68.2557V47.2898H73.6477V42.3636H75.7614V54H73.6477V49.0568H68.2557V54H66.1477ZM77.9631 54V45.2727H80.0199V54H77.9631ZM78.9972 44.0341C78.6714 44.0341 78.3911 43.9261 78.1562 43.7102C77.9214 43.4905 77.804 43.2273 77.804 42.9205C77.804 42.6098 77.9214 42.3466 78.1562 42.1307C78.3911 41.911 78.6714 41.8011 78.9972 41.8011C79.3267 41.8011 79.607 41.911 79.8381 42.1307C80.0729 42.3466 80.1903 42.6098 80.1903 42.9205C80.1903 43.2273 80.0729 43.4905 79.8381 43.7102C79.607 43.9261 79.3267 44.0341 78.9972 44.0341ZM82.1349 54V45.2727H84.1293V46.7273H84.2202C84.3793 46.2235 84.652 45.8352 85.0384 45.5625C85.4285 45.286 85.8736 45.1477 86.3736 45.1477C86.4872 45.1477 86.6141 45.1534 86.7543 45.1648C86.8982 45.1723 87.0175 45.1856 87.1122 45.2045V47.0966C87.0251 47.0663 86.8868 47.0398 86.6974 47.017C86.5118 46.9905 86.3319 46.9773 86.1577 46.9773C85.7827 46.9773 85.4455 47.0587 85.1463 47.2216C84.8509 47.3807 84.6179 47.6023 84.4474 47.8864C84.277 48.1705 84.1918 48.4981 84.1918 48.8693V54H82.1349ZM91.983 54.1705C91.108 54.1705 90.3523 53.9886 89.7159 53.625C89.0833 53.2576 88.5966 52.7386 88.2557 52.0682C87.9148 51.3939 87.7443 50.6004 87.7443 49.6875C87.7443 48.7898 87.9148 48.0019 88.2557 47.3239C88.6004 46.642 89.0814 46.1117 89.6989 45.733C90.3163 45.3504 91.0417 45.1591 91.875 45.1591C92.4129 45.1591 92.9205 45.2462 93.3977 45.4205C93.8788 45.5909 94.303 45.8561 94.6705 46.2159C95.0417 46.5758 95.3333 47.0341 95.5455 47.5909C95.7576 48.1439 95.8636 48.803 95.8636 49.5682V50.1989H88.7102V48.8125H93.892C93.8883 48.4186 93.803 48.0682 93.6364 47.7614C93.4697 47.4508 93.2367 47.2064 92.9375 47.0284C92.642 46.8504 92.2973 46.7614 91.9034 46.7614C91.483 46.7614 91.1136 46.8636 90.7955 47.0682C90.4773 47.2689 90.2292 47.5341 90.0511 47.8636C89.8769 48.1894 89.7879 48.5473 89.7841 48.9375V50.1477C89.7841 50.6553 89.8769 51.0909 90.0625 51.4545C90.2481 51.8144 90.5076 52.0909 90.8409 52.2841C91.1742 52.4735 91.5644 52.5682 92.0114 52.5682C92.3106 52.5682 92.5814 52.5265 92.8239 52.4432C93.0663 52.3561 93.2765 52.2292 93.4545 52.0625C93.6326 51.8958 93.767 51.6894 93.858 51.4432L95.7784 51.6591C95.6572 52.1667 95.4261 52.6098 95.0852 52.9886C94.7481 53.3636 94.3163 53.6553 93.7898 53.8636C93.2633 54.0682 92.661 54.1705 91.983 54.1705ZM97.6946 54V42.3636H99.8026V47.2898H105.195V42.3636H107.308V54H105.195V49.0568H99.8026V54H97.6946ZM115.072 50.3295V45.2727H117.129V54H115.135V52.4489H115.044C114.847 52.9375 114.523 53.3371 114.072 53.6477C113.625 53.9583 113.074 54.1136 112.419 54.1136C111.847 54.1136 111.341 53.9867 110.902 53.733C110.466 53.4754 110.125 53.1023 109.879 52.6136C109.633 52.1212 109.51 51.5265 109.51 50.8295V45.2727H111.567V50.5114C111.567 51.0644 111.718 51.5038 112.021 51.8295C112.324 52.1553 112.722 52.3182 113.214 52.3182C113.518 52.3182 113.811 52.2443 114.095 52.0966C114.379 51.9489 114.612 51.7292 114.794 51.4375C114.98 51.142 115.072 50.7727 115.072 50.3295ZM119.335 54V42.3636H121.392V46.7159H121.477C121.583 46.5038 121.733 46.2784 121.926 46.0398C122.119 45.7973 122.381 45.5909 122.71 45.4205C123.04 45.2462 123.46 45.1591 123.972 45.1591C124.646 45.1591 125.254 45.3314 125.795 45.6761C126.341 46.017 126.773 46.5227 127.091 47.1932C127.413 47.8598 127.574 48.678 127.574 49.6477C127.574 50.6061 127.417 51.4205 127.102 52.0909C126.788 52.7614 126.36 53.2727 125.818 53.625C125.277 53.9773 124.663 54.1534 123.977 54.1534C123.477 54.1534 123.063 54.0701 122.733 53.9034C122.403 53.7367 122.138 53.536 121.938 53.3011C121.741 53.0625 121.587 52.8371 121.477 52.625H121.358V54H119.335ZM121.352 49.6364C121.352 50.2008 121.432 50.6951 121.591 51.1193C121.754 51.5436 121.987 51.875 122.29 52.1136C122.597 52.3485 122.968 52.4659 123.403 52.4659C123.858 52.4659 124.239 52.3447 124.545 52.1023C124.852 51.8561 125.083 51.5208 125.239 51.0966C125.398 50.6686 125.477 50.1818 125.477 49.6364C125.477 49.0947 125.4 48.6136 125.244 48.1932C125.089 47.7727 124.858 47.4432 124.551 47.2045C124.244 46.9659 123.862 46.8466 123.403 46.8466C122.964 46.8466 122.591 46.9621 122.284 47.1932C121.977 47.4242 121.744 47.7481 121.585 48.1648C121.43 48.5814 121.352 49.072 121.352 49.6364ZM130.589 54.125C130.245 54.125 129.949 54.0038 129.703 53.7614C129.457 53.5189 129.336 53.2235 129.339 52.875C129.336 52.5341 129.457 52.2424 129.703 52C129.949 51.7576 130.245 51.6364 130.589 51.6364C130.923 51.6364 131.213 51.7576 131.459 52C131.709 52.2424 131.836 52.5341 131.839 52.875C131.836 53.1061 131.775 53.3163 131.658 53.5057C131.544 53.6951 131.393 53.8466 131.203 53.9602C131.018 54.0701 130.813 54.125 130.589 54.125Z" fill="#F4F3F3"/>
</svg>
