<svg width="27" height="27" viewBox="0 0 27 27" fill="none" xmlns="http://www.w3.org/2000/svg">
<path fill-rule="evenodd" clip-rule="evenodd" d="M12.5795 0C19.5158 0 25.1578 5.642 25.1578 12.5782C25.1578 15.8507 23.9019 18.8354 21.8468 21.0755L25.8907 25.1109C26.2691 25.4894 26.2704 26.1016 25.892 26.4801C25.7034 26.6712 25.4541 26.7655 25.2061 26.7655C24.9594 26.7655 24.7114 26.6712 24.5215 26.4827L20.4288 22.4014C18.2759 24.1255 15.5461 25.1578 12.5795 25.1578C5.64329 25.1578 0 19.5145 0 12.5782C0 5.642 5.64329 0 12.5795 0ZM12.5795 1.9375C6.7115 1.9375 1.9375 6.71021 1.9375 12.5782C1.9375 18.4463 6.7115 23.2203 12.5795 23.2203C18.4463 23.2203 23.2203 18.4463 23.2203 12.5782C23.2203 6.71021 18.4463 1.9375 12.5795 1.9375Z" fill="#ACACAC"/>
</svg>
