<svg width="300" height="300" viewBox="0 0 300 300" fill="none"
    xmlns="http://www.w3.org/2000/svg">
    <rect width="300" height="300" rx="103" fill="#222222"/>
    <path fill-rule="evenodd" clip-rule="evenodd" d="M32.5966 162.908C32.6303 162.525 32.799 161.519 33.6424 161.045C34.2281 160.689 34.931 160.808 35.3995 161.045L35.8681 161.282C59.5308 177.17 87.9963 187.722 117.867 192.109C122.085 192.702 126.302 189.975 127.473 185.707C130.05 175.984 138.367 169.582 148.324 169.582H148.676L150.522 169.656C159.65 170.395 167.111 176.592 169.527 185.707C170.698 189.975 174.916 192.702 179.133 192.109C209.004 187.722 237.469 177.17 261.132 161.282C261.249 161.164 262.421 160.452 263.358 161.045C264.412 161.638 264.412 163.061 264.412 163.061L263.592 223.529L263.534 225.849C262.343 249.667 242.909 268.583 219.078 268.583H78.0392L75.7472 268.525C52.2142 267.319 33.5253 247.649 33.5253 223.529L32.5881 163.061L32.5966 162.908ZM157.263 194.233C156.675 189.924 152.961 186.537 148.559 186.537C143.639 186.537 139.773 190.568 139.773 195.429V210.724L139.852 211.945C140.425 216.328 144.049 219.616 148.559 219.616C153.361 219.616 157.344 215.703 157.344 210.724V195.429L157.263 194.233Z" fill="#F4F3F3"/>
    <path fill-rule="evenodd" clip-rule="evenodd" d="M133.447 34.4167C115.876 34.4167 101.468 47.8145 99.2419 65.0064H76.0478C51.448 65.0064 31.4167 85.281 31.4167 110.18C31.4167 110.18 32.1196 120.72 32.3539 135.398C32.3773 136.56 32.9395 137.698 33.865 138.386C39.4995 142.548 44.6538 145.986 45.1223 146.223C64.5679 159.265 87.1645 168.442 111.237 173.007C112.807 173.315 114.353 172.497 115.15 171.098C121.897 159.408 134.502 151.796 148.559 151.796C162.522 151.796 175.244 159.325 182.19 171.027C182.998 172.402 184.521 173.197 186.079 172.9C209.953 168.324 232.549 159.159 251.878 146.342L263.123 138.517C264.061 137.924 264.646 136.857 264.646 135.671C264.998 129.624 265.583 110.18 265.583 110.18C265.583 85.281 245.552 65.0064 220.952 65.0064H197.875C195.65 47.8145 181.241 34.4167 163.67 34.4167H133.447ZM163.67 52.2014H133.447C125.599 52.2014 118.922 57.6554 117.047 65.0064H180.07C178.196 57.6554 171.518 52.2014 163.67 52.2014Z" fill="#F4F3F3"/>
</svg>
